# xmcd CD database file
#
# Track frame offsets:
#	150
#	14330
#	29460
#	47165
#	61582
#	77765
#	92290
#	108985
#	125860
#	132345
#	147792
#	161242
#	177950
#	193275
#	206675
#	223167
#	238900
#
# Disc length: 3714 seconds
#
# Revision: 13
# Processed by: cddbd v1.5.1PL0 Copyright (c) Steve Scherf et al.
# Submitted via: CDex 1.51
#
DISCID=fa0e8011
DTITLE=Jean Michel Jarre - Images - The Best of Jean Michel Jarre 
DYEAR=1991
DGENRE=Electronic
TTITLE0=Images - The Best of Jean Michel Jarre - Oxygene 4 (1976)
TTITLE1=Images - The Best of Jean Michel Jarre - Equinoxe 5 (1978)
TTITLE2=Images - The Best of Jean Michel Jarre - Chants Magnetiques - Magnetic Fields 2 (1981)
TTITLE3=Images - The Best of Jean Michel Jarre - Oxygene Part 2 (1976)
TTITLE4=Images - The Best of Jean Michel Jarre - Computer Week End (1988)
TTITLE5=Images - The Best of Jean Michel Jarre - Equinoxe Part 4 (1978)
TTITLE6=Images - The Best of Jean Michel Jarre - Ethnicolor 1 (1984)
TTITLE7=Images - The Best of Jean Michel Jarre - London Kid (1988)
TTITLE8=Images - The Best of Jean Michel Jarre - Band In The Rain (1982)
TTITLE9=Images - The Best of Jean Michel Jarre - Orient Express (1982)
TTITLE10=Images - The Best of Jean Michel Jarre - Calypso 1 (1990)
TTITLE11=Images - The Best of Jean Michel Jarre - Calypso 3 (Fin De Siecle)  (1990)
TTITLE12=Images - The Best of Jean Michel Jarre - Rendezvous 4 (1986)
TTITLE13=Images - The Best of Jean Michel Jarre - Moon Machine (1986)
TTITLE14=Images - The Best of Jean Michel Jarre - Eldorado (1991)
TTITLE15=Images - The Best of Jean Michel Jarre - Globe Trotter (1991)
TTITLE16=Images - The Best of Jean Michel Jarre - Rendezvous 2 (1986)
EXTD=YEAR: 1991
EXTT0=
EXTT1=
EXTT2=
EXTT3=
EXTT4=
EXTT5=
EXTT6=
EXTT7=
EXTT8=
EXTT9=
EXTT10=
EXTT11=
EXTT12=
EXTT13=
EXTT14=
EXTT15=
EXTT16=
PLAYORDER=
